<svg xmlns="http://www.w3.org/2000/svg" fill="none" style="margin-bottom:-32px" viewBox="0 0 313 108"><path fill="#C0C0C0" d="M8.464 107.55h294.308S345.369 0 253.202 0c-57.037 0-47.833 87.195-96.107 85.344-65.747-2.522-54.71-51.59-98.285-51.59-46.467 0-50.346 73.796-50.346 73.796Z"/><path fill="#A6E5FF" d="M214.59 91.443c.335.177.678.344 1.022.503 4.531 2.072 9.671 2.486 14.643 2.107 5.642-.432 11.513-2.001 15.48-6.039 11.363-11.557-3.385-22.806-14.052-25.67-6.153-1.65-13.073-1.164-18.416 2.318-5.342 3.482-8.674 10.235-7.202 16.432 1.067 4.478 4.434 8.172 8.525 10.34v.01Z"/><path fill="#A6E5FF" d="M218.045 67.316c.247.15.503.29.749.414 3.35 1.719 7.141 2.063 10.817 1.745 4.17-.352 8.499-1.657 11.434-4.998 8.393-9.574-2.503-18.883-10.376-21.254-4.549-1.367-9.653-.961-13.594 1.921-3.94 2.883-6.4 8.472-5.315 13.612.784 3.711 3.279 6.77 6.294 8.568l-.009-.008Z"/><path fill="#0C4499" d="M227.892 68.03h-1.763v39.519h1.763v-39.52Z"/><path fill="#D3D3D3" d="M94.645 81.103h-16.75v10.58h16.75v-10.58Z"/><path fill="#006AFF" d="M99.053 78.458h-2.645v29.091h2.645V78.458Z"/><path fill="#006AFF" d="M99.053 79.34v-2.645H77.895v2.645h21.158Z"/><path fill="#0D4599" d="m182.8 11.46-35.633 57.301h70.384L182.8 11.46Z"/><path fill="#0D4599" d="M182.8 11.46h-45.841v57.301H182.8V11.46Z"/><path fill="#006AFF" d="M136.545 10.781 101.353 67.88h70.384L136.545 10.78Z"/><path fill="#A6E5FF" d="M167.814 68.762h-62.59v18.512h62.59V68.762Z"/><path fill="#006AFF" d="M213.655 68.762h-62.591v18.512h62.591V68.762Z"/><path fill="#A6E5FF" d="M143.13 73.169h-12.341v8.816h12.341v-8.816ZM205.721 73.169h-12.342v8.816h12.342v-8.816Z"/><path fill="#006AFF" d="M213.655 87.274H105.224v20.276h108.431V87.274Z"/><path fill="#0D4599" d="M213.655 87.274H176.63v20.276h37.025V87.274Z"/><path fill="#0D4599" d="M183.682 87.274h-50.248v20.276h50.248V87.274Z"/><path fill="#136FFB" d="M165.169 67.88h-59.945v5.29h59.945v-5.29Z"/><path fill="#A6E5FF" d="m136.544 17.04-31.339 50.84h62.67l-31.331-50.84Z"/><path fill="#006AFF" d="M164.288 61.709v-3.526H108.75v3.526h55.538ZM164.288 37.025V33.5H108.75v3.526h55.538Z"/><path fill="#006AFF" d="M130.788 33.499h-3.526v35.262h3.526V33.5ZM145.775 33.499h-3.526v35.262h3.526V33.5Z"/><path fill="#A6E5FF" d="m163.124 53.757-20.382 33.517h40.763l-20.381-33.517Z"/><path fill="#A6E5FF" d="M154.59 62.59h8.816l-.283-8.833h-9.053l.52 8.833Z"/><path fill="#0D4599" d="m154.07 53.757-20.382 33.517h40.772l-20.39-33.517Z"/><path fill="#006AFF" d="m154.07 61.991-12.051 19.994h24.11L154.07 61.99Z"/><path fill="#A6E5FF" d="M129.907 89.919h-18.512v12.342h18.512V89.919Z"/><path fill="#006AFF" d="M206.603 91.682h-12.342v7.934h12.342v-7.934Z"/><path fill="#0D4599" d="M173.985 87.274h-40.551v20.276h40.551V87.274Z"/><path fill="#fff" d="M154.15 87.274a6.614 6.614 0 0 1 6.611 6.612v13.664h-13.223V93.886a6.614 6.614 0 0 1 6.612-6.612Z"/><path fill="#D3D3D3" d="M33.632 96.945c.344-.238.67-.485.988-.74 4.196-3.35 6.62-8.067 8.04-12.995 1.604-5.598 1.913-11.945-1.464-17.649-9.644-16.326-28.73-7.555-36.179 1.279C.715 71.935-1.295 78.785.891 85.529c2.187 6.744 9.063 13.126 17.085 14.651 5.8 1.102 11.504-.37 15.648-3.244l.008.009Z"/><path fill="#006AFF" d="M22.798 71.424h-1.763v36.126h1.763V71.424Z"/><path fill="#0C4499" d="M247.348 96.407c-2.785-2.142-6.303 4.363-6.303 4.363s4.611-9.952.529-10.402c-1.701-.185-3.517 4.161-4.39 8.392-.026-3.905-.978-7.14-2.371-7.29-4.091-.423-1.578 10.288-1.578 10.288l1.066 5.792h6.356s9.407-9.045 6.691-11.143Z"/></svg>